<svg width="24" height="24" viewBox="0 0 24 24" fill="none" xmlns="http://www.w3.org/2000/svg">
<circle cx="12" cy="12" r="12" fill="white"/>
<path d="M12.4657 0.00863457C12.3107 0.00287819 12.1555 0 12.0002 0C5.37252 0 0 5.40483 0 12.0724C0 17.8859 4.08222 22.7377 9.51932 23.8861C9.7125 23.9272 9.90773 23.9634 10.105 23.9947L10.1332 23.9992V15.7889C10.1332 15.5694 10.1332 15.5694 9.91659 15.5694H7.2383C7.07849 15.5694 7.07685 15.5673 7.07685 15.4049V12.2668C7.07685 12.095 7.07685 12.0937 7.25342 12.0937H9.96318C10.1267 12.0937 10.1328 12.0892 10.1328 11.9235C10.1328 11.0251 10.1283 10.1271 10.1352 9.22871C10.1406 8.50135 10.2697 7.79579 10.5681 7.12887C11.0651 6.01871 11.9099 5.30862 13.0637 4.96241C13.7691 4.75025 14.4942 4.71078 15.2209 4.76546C15.8748 4.8148 16.5267 4.89416 17.1798 4.95666C17.2885 4.96694 17.327 5.01175 17.3265 5.12112C17.3233 6.00884 17.3265 6.89697 17.3245 7.78468C17.3245 7.92613 17.3176 7.93271 17.1765 7.93312C16.6902 7.93312 16.2038 7.92777 15.7174 7.93641C15.2936 7.94381 14.8894 8.03509 14.5363 8.28837C14.1464 8.56796 13.9616 8.96927 13.8885 9.43019C13.8704 9.55461 13.8619 9.68026 13.8631 9.806C13.8607 10.5087 13.8631 11.2114 13.8631 11.9137C13.8631 12.0921 13.8631 12.0925 14.045 12.0925H17.0024C17.1819 12.0925 17.1823 12.0925 17.1557 12.2648C16.996 13.3149 16.8361 14.3651 16.6759 15.4152C16.6538 15.562 16.6481 15.5669 16.496 15.5669H14.0376C13.8639 15.5669 13.8619 15.5669 13.8619 15.7412V24L13.8852 23.9963C14.1765 23.9502 14.4642 23.8936 14.7484 23.8265C16.7074 23.361 18.5189 22.4082 20.0169 21.0555C21.5148 19.7028 22.6512 17.9935 23.3219 16.0842C23.5373 15.4683 23.7023 14.8357 23.8153 14.1928C23.8189 14.173 23.8226 14.1537 23.8259 14.134C23.94 13.467 23.9982 12.7915 24 12.1147C24 12.1003 24 12.0859 24 12.0715C24.0004 5.56149 18.8764 0.254103 12.4657 0.00863457Z" fill="#1877F2"/>
</svg>
