<svg width="24" height="24" viewBox="0 0 24 24" fill="none" xmlns="http://www.w3.org/2000/svg">
<g clip-path="url(#clip0_998_91)">
<path d="M1.50008 1.63305C-0.385923 3.59205 7.7188e-05 5.67305 7.7188e-05 11.995C7.7188e-05 17.245 -0.915923 22.508 3.87808 23.747C5.37508 24.132 18.6391 24.132 20.1341 23.745C22.1301 23.23 23.7541 21.611 23.9761 18.788C24.0071 18.394 24.0071 5.60305 23.9751 5.20105C23.7391 2.19405 21.8881 0.461046 19.4491 0.110046C18.8901 0.0290464 18.7781 0.00504639 15.9101 4.63948e-05C5.73708 0.00504639 3.50708 -0.447954 1.50008 1.63305Z" fill="url(#paint0_linear_998_91)"/>
<path d="M11.9979 3.13898C8.36694 3.13898 4.91894 2.81598 3.60194 6.19598C3.05794 7.59198 3.13694 9.40499 3.13694 12.001C3.13694 14.279 3.06394 16.42 3.60194 17.805C4.91594 21.187 8.39194 20.863 11.9959 20.863C15.4729 20.863 19.0579 21.225 20.3909 17.805C20.9359 16.395 20.8559 14.609 20.8559 12.001C20.8559 8.53899 21.0469 6.30398 19.3679 4.62598C17.6679 2.92598 15.3689 3.13898 11.9939 3.13898H11.9979ZM11.2039 4.73598C18.7779 4.72398 19.7419 3.88199 19.2099 15.579C19.0209 19.716 15.8709 19.262 11.9989 19.262C4.93894 19.262 4.73594 19.06 4.73594 11.997C4.73594 4.85198 5.29594 4.73998 11.2039 4.73398V4.73598ZM16.7279 6.20698C16.1409 6.20698 15.6649 6.68298 15.6649 7.26998C15.6649 7.85698 16.1409 8.33298 16.7279 8.33298C17.3149 8.33298 17.7909 7.85698 17.7909 7.26998C17.7909 6.68298 17.3149 6.20698 16.7279 6.20698ZM11.9979 7.44998C9.48494 7.44998 7.44794 9.48799 7.44794 12.001C7.44794 14.514 9.48494 16.551 11.9979 16.551C14.5109 16.551 16.5469 14.514 16.5469 12.001C16.5469 9.48799 14.5109 7.44998 11.9979 7.44998ZM11.9979 9.04698C15.9029 9.04698 15.9079 14.955 11.9979 14.955C8.09394 14.955 8.08794 9.04698 11.9979 9.04698Z" fill="white"/>
</g>
<defs>
<linearGradient id="paint0_linear_998_91" x1="1.5461" y1="22.4671" x2="23.8516" y2="3.16202" gradientUnits="userSpaceOnUse">
<stop stop-color="#FCC638"/>
<stop offset="0.369792" stop-color="#FF543E"/>
<stop offset="0.666667" stop-color="#C837AB"/>
<stop offset="1" stop-color="#2D75CC"/>
</linearGradient>
<clipPath id="clip0_998_91">
<rect width="24" height="24" fill="white"/>
</clipPath>
</defs>
</svg>
