<?xml version="1.0" encoding="UTF-8"?>
<!DOCTYPE svg PUBLIC "-//W3C//DTD SVG 1.1//EN" "http://www.w3.org/Graphics/SVG/1.1/DTD/svg11.dtd">
<!-- Creator: CorelDRAW 2020 (64-Bit) -->
<svg xmlns="http://www.w3.org/2000/svg" xml:space="preserve" width="91.5473mm" height="72.3367mm" version="1.1" style="shape-rendering:geometricPrecision; text-rendering:geometricPrecision; image-rendering:optimizeQuality; fill-rule:evenodd; clip-rule:evenodd"
viewBox="0 0 9721.14 7681.22"
 xmlns:xlink="http://www.w3.org/1999/xlink"
 xmlns:xodm="http://www.corel.com/coreldraw/odm/2003">
 <defs>
  <style type="text/css">
   <![CDATA[
    .fil0 {fill:#373435;fill-rule:nonzero}
    .fil1 {fill:#F89E37;fill-rule:nonzero}
   ]]>
  </style>
 </defs>
 <g id="Layer_x0020_1">
  <metadata id="CorelCorpID_0Corel-Layer"/>
  <path class="fil0" d="M7127.96 6477.68c-303.51,-9.4 -546.66,-156.73 -765.51,-293.5 -194.52,-121.59 -775.12,-577.9 -977.87,-750.4 -193.41,-164.67 -847.28,-732.91 -1386.97,-1202.6 46.41,-4.15 92.95,-9.21 139.58,-15.95 533.36,-77.21 1111.94,-527.75 1121.97,-1334.45l0 -3.15c-10.03,-804.8 -588.69,-1254.28 -1122.05,-1331.34 -101.93,-14.64 -202.97,-22.85 -301.59,-25.28l-0.46 -1.09 -2310.85 0 0 446.91 878.82 0 0 3477.53 466.87 0 0 -3477.53 1032.98 0c54.84,3.48 110.32,9.03 166.1,17.12 482.6,69.68 707.81,529.47 713.01,895.45 -7.26,523.44 -374.56,814.58 -712.94,863.53 -78.51,11.35 -156.14,17.95 -231.77,20.23l0 0.15 -8.73 0c-15.69,0.38 -659.9,0 -659.9,0l0 402.93c524.82,457.14 1631.48,1420.46 1894.87,1644.67 185.57,157.96 800,645.6 1036.45,793.33 258.18,161.42 577.08,331.19 984.68,366.89 62.3,5.51 122.16,8.02 179.89,8.02 367.38,0 644.5,-102.83 838.77,-211.92l0 -513.81c-417.6,278.15 -816.97,229.23 -975.35,224.28z"/>
  <path class="fil0" d="M3841.42 209.55c-1547.31,0 -2926.23,983.3 -3431.23,2446.81 -316.38,916.59 -256.87,1901.53 167.52,2773.28 424.5,871.85 1162.96,1526.06 2079.4,1842.38 383.9,132.46 782.47,199.66 1184.61,199.66 1547.19,0 2925.95,-983.23 3430.96,-2446.7 316.44,-916.5 256.91,-1901.45 -167.55,-2773.31 -424.31,-871.73 -1162.78,-1526.1 -2079.43,-1842.53 -383.86,-132.46 -782.29,-199.59 -1184.27,-199.59zm0.3 7471.68c-425.51,0 -847.17,-71.06 -1253.12,-211.16 -969.37,-334.52 -1750.38,-1026.56 -2199.23,-1948.69 -448.9,-922.01 -511.86,-1963.75 -177.34,-2933.38 534.15,-1547.97 1992.68,-2587.99 3629.4,-2587.99 425.17,0 846.64,71.02 1252.67,211.05 969.37,334.6 1750.49,1026.72 2199.45,1948.84 448.93,922.28 511.86,1964.02 177.19,2933.39 -534.11,1547.93 -1992.53,2587.95 -3629.02,2587.95z"/>
  <path class="fil1" d="M8975.26 5606.51c-360.68,0 -676.39,-118.41 -981.73,-233.01 -287.62,-107.99 -558.31,-209.59 -851.89,-209.59 -24.54,0 -48.47,0.46 -71.77,1.32 -34.32,0.34 -80.43,3.44 -127.3,8.73 -89.82,9.32 -176.66,25.8 -257.31,48.85 -133.43,35.43 -258.25,85.26 -372.28,148.64l0 -217.2c224.87,-132.68 503.36,-199.93 828.66,-199.93 331.26,0 632.51,113.1 923.92,222.44 303.09,113.74 588.73,220.99 909.24,220.99 68.48,0 137.55,-5.07 205.17,-15.06 171.57,-18.4 353.67,-74.97 541.15,-168.27l0 217.12c-251.21,117.62 -495.75,174.9 -745.94,174.98l0.07 0z"/>
  <path class="fil1" d="M8974.86 4655.66c-360.97,0 -676.84,-118.6 -982.4,-233.34 -286.61,-107.63 -557.33,-209.26 -850.85,-209.26 -198.5,0 -378.05,28.07 -533.7,83.31 -103.8,32.59 -202.85,74.88 -294.97,126.1l0 -219.03c224.99,-132.69 503.48,-199.93 828.66,-199.93 331.49,0 633.01,113.13 924.57,222.56 302.41,113.58 588.01,220.9 908.53,220.9 100.92,0 198.42,-10.45 298.07,-31.88 143.36,-25.85 294.14,-77.8 448.36,-154.6l0 220.26c-251.36,117.62 -495.89,174.9 -745.87,174.9l-0.41 0z"/>
  <path class="fil1" d="M8975.19 3704.8c-361,0 -676.99,-118.64 -982.67,-233.35 -287.17,-107.69 -557.67,-209.21 -850.88,-209.21 -179.73,0 -344.9,23.45 -490.81,69.67 -120.25,34.5 -233.56,81.11 -337.86,139.05l0 -218.38c224.81,-132.69 503.24,-199.9 828.66,-199.9 331.64,0 633.01,113.13 924.49,222.52 302.54,113.59 588.24,220.87 908.42,220.84 79.71,0 160.07,-6.82 238.66,-20.39 161.65,-21.65 332.46,-76.78 507.94,-164.07l0 218.2c-251.32,117.7 -495.87,175.02 -745.95,175.02z"/>
  <path class="fil1" d="M8975.04 2753.99c-360.56,0 -676.23,-118.38 -981.5,-232.9 -277.21,-104.1 -538.64,-202.32 -820.39,-209.21l-0.11 -6.86 -90.16 0c-45.26,0 -409.3,6.48 -769.89,206.37l0 -209.63c224.8,-132.68 503.32,-199.89 828.66,-199.89 331.44,0 632.96,113.13 924.52,222.55 302.5,113.59 588.24,220.91 908.67,220.91 62.83,0 126.14,-4.31 188.17,-12.63 176.89,-16.75 364.71,-73.87 558.12,-170.07l0 216.44c-251.37,117.63 -495.9,174.91 -745.88,174.91l-0.22 0z"/>
  <path class="fil1" d="M6221.66 2781.39l0 0.83c0.27,-0.31 0.45,-0.56 0.64,-0.93l-0.64 0.11z"/>
 </g>
</svg>
