<?xml version="1.0" standalone="no"?>
<!DOCTYPE svg PUBLIC "-//W3C//DTD SVG 20010904//EN"
 "http://www.w3.org/TR/2001/REC-SVG-20010904/DTD/svg10.dtd">
<svg version="1.0" xmlns="http://www.w3.org/2000/svg"
 width="700.000000pt" height="700.000000pt" viewBox="0 0 700.000000 700.000000"
 preserveAspectRatio="xMidYMid meet">
<metadata>
Created by potrace 1.14, written by Peter Selinger 2001-2017
</metadata>
<g transform="translate(0.000000,700.000000) scale(0.100000,-0.100000)"
fill="#000000" stroke="none">
<path d="M2434 6245 c-850 -107 -1603 -596 -2039 -1326 -199 -333 -323 -695
-377 -1099 -19 -145 -16 -547 5 -695 118 -804 546 -1491 1202 -1930 306 -205
640 -344 995 -415 218 -44 336 -53 622 -47 282 5 399 20 636 82 358 94 728
279 1013 506 l86 68 104 -44 c206 -87 392 -121 613 -112 190 8 310 36 468 110
l88 40 0 189 c0 103 -4 188 -9 188 -5 0 -34 -16 -66 -35 -64 -38 -156 -75
-255 -102 -52 -15 -105 -18 -270 -18 -184 0 -213 2 -285 23 -117 33 -116 31
-63 94 69 82 161 209 224 311 61 98 176 324 214 420 22 56 24 58 54 52 30 -6
186 -59 531 -179 214 -75 317 -96 497 -103 168 -7 282 9 433 59 151 51 145 44
145 142 l0 84 -81 -35 c-44 -19 -124 -46 -177 -60 -85 -23 -118 -26 -267 -27
-196 -1 -271 14 -520 102 -77 28 -203 73 -280 100 -77 27 -166 55 -198 63 -51
11 -58 15 -54 33 3 12 19 75 36 141 17 66 38 165 46 220 9 55 18 102 21 104 2
2 104 -33 226 -77 334 -122 414 -144 601 -164 186 -19 374 8 565 82 l82 31 0
85 c0 46 -2 84 -5 84 -3 0 -42 -15 -87 -34 -103 -43 -215 -71 -337 -87 -166
-21 -364 12 -611 102 -63 22 -182 65 -265 94 l-150 53 -6 228 c-3 126 -9 244
-13 262 l-8 32 114 -41 c264 -96 483 -167 570 -185 71 -15 135 -19 273 -19
200 1 286 16 440 78 l80 32 3 87 3 87 -81 -35 c-133 -58 -256 -85 -410 -91
-204 -8 -349 24 -694 154 -66 25 -166 60 -221 78 l-100 32 -13 59 c-29 124
-76 283 -113 383 -22 57 -39 105 -39 107 0 18 181 -37 449 -135 122 -45 273
-95 335 -111 271 -70 505 -64 747 19 148 51 139 41 139 139 0 64 -3 83 -12 79
-201 -91 -329 -120 -523 -120 -170 0 -268 20 -492 99 -84 30 -222 78 -306 108
-134 47 -260 80 -389 101 -34 5 -40 12 -83 93 -189 351 -502 697 -839 930
-345 239 -755 402 -1176 468 -145 23 -593 28 -746 9z m745 -174 c737 -127
1355 -524 1760 -1131 66 -99 114 -180 109 -185 -2 -2 -41 -8 -88 -15 -121 -16
-232 -47 -327 -91 l-83 -38 0 -81 c0 -62 3 -81 13 -77 6 3 49 22 95 42 116 51
258 85 378 92 l100 6 36 -84 c50 -117 82 -211 113 -325 15 -55 28 -106 31
-115 4 -13 -6 -14 -78 -6 -179 19 -451 -25 -610 -99 l-78 -37 0 -85 c0 -63 3
-83 13 -79 6 3 50 22 97 42 181 78 396 112 579 94 53 -6 100 -14 105 -19 16
-16 25 -108 32 -319 l7 -204 -29 7 c-16 3 -88 9 -160 13 -216 10 -402 -22
-561 -97 l-83 -39 0 -84 0 -85 88 38 c167 74 331 110 500 110 82 0 211 -15
221 -26 9 -9 -37 -256 -71 -377 l-33 -118 -140 -4 c-209 -5 -361 -38 -508
-110 l-57 -28 0 -85 c0 -63 3 -83 13 -79 6 3 48 22 92 41 107 47 247 83 374
96 134 13 161 13 161 -3 0 -24 -110 -250 -174 -357 -105 -174 -276 -403 -312
-417 -30 -11 -441 287 -759 552 -73 61 -337 288 -587 505 l-455 395 93 17
c114 20 178 40 269 86 153 76 280 186 369 320 216 325 216 788 0 1114 -156
236 -410 384 -712 417 -67 7 -400 11 -962 11 l-860 0 0 -165 0 -165 315 0 315
0 0 -1255 0 -1255 175 0 175 0 0 1256 0 1256 423 -4 c357 -4 431 -7 482 -21
202 -57 350 -205 422 -422 24 -70 27 -96 27 -210 1 -117 -2 -138 -27 -210 -66
-186 -198 -319 -380 -380 -97 -32 -243 -45 -524 -45 l-223 0 0 -147 0 -148
282 -245 c155 -135 460 -400 677 -589 218 -189 475 -406 571 -484 203 -163
512 -396 570 -429 22 -13 40 -26 40 -29 0 -11 -167 -132 -274 -200 -226 -141
-550 -274 -816 -333 -345 -76 -732 -79 -1086 -6 -394 81 -793 270 -1114 526
-109 88 -296 275 -384 384 -296 370 -492 825 -562 1305 -22 147 -25 503 -5
645 69 503 261 954 568 1335 109 135 324 342 458 442 351 262 763 435 1185
497 163 24 161 24 420 21 195 -2 270 -7 369 -24z"/>
</g>
</svg>
