<svg width="106" height="102" viewBox="0 0 106 102" fill="none" xmlns="http://www.w3.org/2000/svg">
<g clip-path="url(#clip0_125_580)">
<path d="M23.1978 102C34.4153 102 44.2344 98.5533 53.7309 95.218C62.6761 92.075 71.0952 89.118 80.2258 89.118C80.989 89.118 81.7334 89.1314 82.4578 89.1565C83.5253 89.1663 84.9592 89.2566 86.417 89.4104C89.2107 89.6819 91.9114 90.1614 94.4198 90.8319C98.5698 91.8633 102.451 93.3134 105.998 95.158V88.8368C99.0042 84.9753 90.3429 83.0181 80.2255 83.0181C69.9228 83.0181 60.5534 86.3097 51.4901 89.492C42.0636 92.8022 33.1799 95.9237 23.2115 95.9237C21.0818 95.9237 18.9335 95.7764 16.8303 95.4856C11.4944 94.9498 5.83089 93.3036 -0.00025177 90.588V96.9073C7.81251 100.331 15.418 101.998 23.1996 102H23.1972L23.1978 102Z" fill="#F5F5F5"/>
<path d="M23.2112 74.3256C34.438 74.3256 44.2615 70.8738 53.7653 67.5345C62.6793 64.4021 71.099 61.444 80.2278 61.444C86.4012 61.444 91.9854 62.261 96.8264 63.8688C100.055 64.8173 103.135 66.0483 106 67.5388V61.1642C99.003 57.3024 90.3417 55.3455 80.2278 55.3455C69.9178 55.3455 60.5403 58.6379 51.4723 61.8229C42.0671 65.1285 33.1846 68.2521 23.2162 68.2521C20.0776 68.2521 17.0451 67.948 13.9459 67.3244C9.48714 66.5721 4.7978 65.06 0.00118256 62.8249V69.2355C7.8186 72.6589 15.4241 74.3259 23.1987 74.3259H23.2115L23.2112 74.3256Z" fill="#F5F5F5"/>
<path d="M23.201 46.6516C34.4287 46.6516 44.2563 43.1987 53.7632 39.8602C62.6948 36.7259 71.1077 33.7711 80.2267 33.7711C85.8165 33.7711 90.9535 34.4536 95.4916 35.799C99.2312 36.8031 102.755 38.1594 105.999 39.846V33.4899C99.0074 29.6281 90.3478 27.672 80.2267 27.672C69.912 27.672 60.5391 30.9645 51.4741 34.1481C42.0648 37.454 33.179 40.5762 23.2208 40.5754C20.7416 40.5754 18.2426 40.3768 15.7984 39.9821C10.7709 39.352 5.45834 37.7475 0.000892639 35.2071V41.5577C7.81744 44.9833 15.4232 46.6514 23.201 46.6514V46.6516Z" fill="#F5F5F5"/>
<path d="M23.2055 18.9794C34.4192 18.9794 44.2372 15.5341 53.7313 12.201C62.353 9.17123 70.4841 6.31275 79.2465 6.11198L79.25 5.91231H82.0542C83.4619 5.91231 94.784 6.1008 105.999 11.9187V5.81738C99.0073 1.95588 90.3451 -0.000244141 80.2263 -0.000244141C69.918 -0.000244141 60.5405 3.29223 51.4725 6.47697C42.0647 9.78281 33.1774 12.9064 23.2114 12.9064C21.2572 12.9064 19.2881 12.781 17.3589 12.539C11.8575 12.0515 6.01614 10.3889 0.000762939 7.58937V13.8887C7.81877 17.3124 15.424 18.9794 23.1985 18.9794H23.2055Z" fill="#F5F5F5"/>
<path d="M0.0204315 19.7764V19.8006C0.0118983 19.7915 0.00630239 19.7841 0.000417413 19.7731L0.0204315 19.7764Z" fill="#8D6B46"/>
</g>
<defs>
<clipPath id="clip0_125_580">
<rect width="106" height="102" fill="white" transform="matrix(-1 0 0 1 106 0)"/>
</clipPath>
</defs>
</svg>
